<svg xmlns="http://www.w3.org/2000/svg" xmlns:xlink="http://www.w3.org/1999/xlink" width="100" zoomAndPan="magnify" viewBox="0 0 75 37.5" height="50" preserveAspectRatio="xMidYMid meet" version="1.0"><defs><clipPath id="f61580bbc3"><path d="M 6 4.238281 L 14 4.238281 L 14 30 L 6 30 Z M 6 4.238281 " clip-rule="nonzero"/></clipPath><clipPath id="df9cb7cbb6"><path d="M 0.492188 4.238281 L 8 4.238281 L 8 30 L 0.492188 30 Z M 0.492188 4.238281 " clip-rule="nonzero"/></clipPath><clipPath id="7f8af2fc25"><path d="M 6 25 L 9 25 L 9 33.105469 L 6 33.105469 Z M 6 25 " clip-rule="nonzero"/></clipPath><clipPath id="5c1084c13a"><path d="M 57 17 L 74.503906 17 L 74.503906 27 L 57 27 Z M 57 17 " clip-rule="nonzero"/></clipPath></defs><g clip-path="url(#f61580bbc3)"><path fill="#ffffff" d="M 6.957031 4.347656 L 7.71875 5.792969 C 7.882812 6.054688 8.074219 6.296875 8.292969 6.515625 C 8.929688 7.160156 9.535156 7.835938 10.078125 8.558594 C 11.367188 10.273438 12.234375 12.175781 12.855469 14.234375 C 13.230469 15.492188 13.429688 16.78125 13.445312 18.085938 C 13.507812 21.984375 12.1875 25.332031 9.519531 28.113281 C 9.085938 28.554688 8.617188 28.957031 8.121094 29.324219 C 7.855469 29.324219 7.730469 29.109375 7.625 28.929688 C 7.414062 28.578125 7.296875 28.191406 7.234375 27.796875 C 7.140625 27.328125 7.078125 26.855469 7.109375 26.367188 L 7.109375 26.148438 C 7.09375 26.101562 6.863281 4.457031 6.957031 4.347656 Z M 6.957031 4.347656 " fill-opacity="1" fill-rule="nonzero"/></g><g clip-path="url(#df9cb7cbb6)"><path fill="#cbcbcb" d="M 6.957031 4.300781 C 6.925781 4.238281 6.894531 4.285156 6.863281 4.316406 C 6.878906 4.628906 6.769531 4.914062 6.597656 5.179688 C 6.414062 5.449219 6.164062 5.652344 5.914062 5.871094 C 4.535156 7.082031 3.449219 8.542969 2.578125 10.179688 C 1.429688 12.378906 0.824219 14.738281 0.652344 17.21875 C 0.578125 18.117188 0.933594 21.277344 1.210938 22.1875 C 1.972656 24.609375 3.339844 26.632812 5.117188 28.394531 C 5.550781 28.816406 6.019531 29.210938 6.5 29.589844 C 6.636719 29.589844 6.65625 29.464844 6.683594 29.367188 C 6.746094 29.167969 6.792969 28.964844 6.824219 28.753906 C 6.964844 27.96875 7.042969 27.183594 7.132812 26.398438 L 6.964844 4.300781 Z M 6.957031 4.300781 " fill-opacity="1" fill-rule="nonzero"/></g><g clip-path="url(#7f8af2fc25)"><path fill="#ffffff" d="M 7.71875 30.28125 C 7.75 29.917969 7.929688 29.621094 8.109375 29.324219 C 7.921875 29.246094 7.78125 29.085938 7.671875 28.914062 C 7.578125 28.757812 7.503906 28.558594 7.441406 28.394531 C 7.222656 27.734375 7.175781 27.042969 7.113281 26.367188 L 7.113281 25.957031 C 7.039062 26.019531 7.019531 26.554688 7.019531 26.632812 C 6.972656 27.355469 6.882812 28.0625 6.742188 28.753906 C 6.695312 29.039062 6.664062 29.320312 6.492188 29.574219 C 6.492188 29.605469 6.492188 29.636719 6.507812 29.683594 C 6.789062 30.515625 6.867188 31.363281 6.914062 32.230469 L 6.914062 32.542969 C 6.914062 32.917969 6.898438 32.839844 7.207031 32.964844 C 7.332031 33.015625 7.472656 33.03125 7.597656 33.125 C 7.691406 33.125 7.707031 33.046875 7.707031 32.984375 L 7.660156 32.464844 L 7.660156 31.015625 C 7.644531 30.765625 7.691406 30.515625 7.722656 30.277344 Z M 7.71875 30.28125 " fill-opacity="1" fill-rule="nonzero"/></g><path fill="#ffffff" d="M 19.511719 23.707031 L 19.511719 25.203125 C 19.507812 25.261719 19.511719 25.324219 19.519531 25.382812 C 19.539062 25.558594 19.648438 25.667969 19.804688 25.714844 C 19.953125 25.757812 20.101562 25.785156 20.253906 25.804688 C 20.339844 25.816406 20.371094 25.855469 20.378906 25.949219 C 20.390625 26.285156 20.359375 26.324219 20.039062 26.304688 C 19.292969 26.265625 18.542969 26.253906 17.792969 26.304688 L 17.722656 26.304688 C 17.488281 26.3125 17.46875 26.292969 17.46875 26.058594 C 17.46875 26.019531 17.476562 25.96875 17.476562 25.929688 C 17.476562 25.855469 17.527344 25.820312 17.59375 25.820312 C 17.75 25.800781 17.898438 25.761719 18.042969 25.734375 C 18.25 25.683594 18.363281 25.554688 18.382812 25.347656 C 18.414062 25.121094 18.414062 24.886719 18.414062 24.660156 L 18.421875 22.019531 C 18.429688 21.847656 18.359375 21.722656 18.207031 21.644531 C 18.03125 21.546875 17.847656 21.46875 17.652344 21.410156 C 17.59375 21.390625 17.535156 21.378906 17.488281 21.347656 C 17.347656 21.28125 17.34375 21.152344 17.476562 21.074219 C 17.527344 21.042969 17.585938 21.023438 17.644531 21.015625 C 18.234375 20.925781 18.8125 20.777344 19.375 20.570312 C 19.492188 20.53125 19.519531 20.542969 19.53125 20.660156 C 19.542969 20.730469 19.53125 20.820312 19.523438 20.886719 C 19.503906 21.015625 19.503906 21.140625 19.503906 21.261719 C 19.503906 21.308594 19.511719 21.359375 19.5625 21.390625 C 19.609375 21.417969 19.660156 21.390625 19.703125 21.359375 C 19.90625 21.203125 20.113281 21.054688 20.335938 20.929688 C 20.65625 20.75 20.996094 20.59375 21.367188 20.542969 C 21.816406 20.484375 22.203125 20.601562 22.546875 20.898438 C 22.6875 21.027344 22.808594 21.171875 22.914062 21.332031 C 23.011719 21.476562 23.023438 21.480469 23.148438 21.378906 C 23.519531 21.105469 23.90625 20.859375 24.328125 20.679688 C 24.765625 20.492188 25.210938 20.464844 25.660156 20.621094 C 26.117188 20.789062 26.429688 21.113281 26.613281 21.558594 C 26.769531 21.914062 26.835938 22.277344 26.835938 22.660156 L 26.835938 25.300781 C 26.835938 25.476562 26.90625 25.585938 27.082031 25.675781 C 27.265625 25.746094 27.46875 25.78125 27.664062 25.820312 C 27.789062 25.851562 27.789062 25.851562 27.789062 25.980469 C 27.773438 26.304688 27.742188 26.324219 27.429688 26.304688 C 26.648438 26.261719 25.867188 26.261719 25.085938 26.304688 C 24.929688 26.316406 24.929688 26.316406 24.921875 26.15625 L 24.921875 26.109375 C 24.910156 25.839844 24.910156 25.839844 25.164062 25.785156 L 25.417969 25.714844 C 25.617188 25.667969 25.71875 25.539062 25.71875 25.332031 L 25.746094 24.589844 L 25.726562 22.660156 C 25.71875 22.488281 25.683594 22.320312 25.621094 22.160156 C 25.378906 21.558594 24.84375 21.34375 24.328125 21.402344 C 23.9375 21.441406 23.597656 21.597656 23.277344 21.824219 C 23.207031 21.875 23.160156 21.933594 23.167969 22.03125 C 23.257812 22.664062 23.199219 23.292969 23.207031 23.921875 L 23.207031 25.292969 C 23.207031 25.539062 23.304688 25.65625 23.539062 25.714844 L 23.988281 25.816406 C 24.054688 25.824219 24.09375 25.855469 24.09375 25.933594 L 24.09375 26.003906 C 24.085938 26.28125 24.066406 26.292969 23.792969 26.289062 C 23.015625 26.25 22.234375 26.261719 21.46875 26.289062 C 21.203125 26.300781 21.183594 26.269531 21.195312 26.003906 C 21.203125 25.84375 21.222656 25.835938 21.371094 25.804688 L 21.691406 25.746094 C 21.976562 25.6875 22.078125 25.578125 22.097656 25.273438 L 22.128906 24.613281 L 22.109375 22.632812 C 22.089844 22.386719 22.039062 22.152344 21.902344 21.925781 C 21.710938 21.558594 21.40625 21.375 20.988281 21.351562 C 20.570312 21.324219 20.199219 21.480469 19.851562 21.675781 C 19.605469 21.820312 19.5 21.992188 19.519531 22.277344 L 19.519531 23.714844 Z M 37.839844 23.765625 L 37.839844 25.15625 C 37.84375 25.253906 37.851562 25.351562 37.859375 25.453125 C 37.871094 25.601562 37.949219 25.695312 38.09375 25.726562 C 38.261719 25.777344 38.433594 25.808594 38.609375 25.816406 C 38.707031 25.824219 38.726562 25.863281 38.738281 25.945312 L 38.738281 26.011719 C 38.726562 26.359375 38.6875 26.398438 38.355469 26.378906 C 37.617188 26.328125 36.878906 26.339844 36.136719 26.378906 L 35.855469 26.386719 C 35.796875 26.386719 35.78125 26.359375 35.765625 26.320312 C 35.738281 26.179688 35.738281 26.042969 35.765625 25.90625 C 35.777344 25.847656 35.816406 25.832031 35.875 25.816406 C 36.015625 25.796875 36.136719 25.769531 36.273438 25.746094 C 36.515625 25.6875 36.601562 25.585938 36.613281 25.332031 L 36.640625 24.503906 L 36.640625 22.082031 C 36.640625 21.902344 36.570312 21.796875 36.417969 21.714844 C 36.242188 21.617188 36.058594 21.550781 35.863281 21.480469 C 35.804688 21.460938 35.746094 21.441406 35.695312 21.410156 C 35.570312 21.320312 35.554688 21.195312 35.675781 21.097656 C 35.734375 21.046875 35.796875 21.023438 35.871094 21.015625 C 36.496094 20.917969 37.097656 20.78125 37.679688 20.542969 C 37.75 20.515625 37.777344 20.535156 37.808594 20.59375 C 37.835938 20.652344 37.847656 20.722656 37.835938 20.789062 L 37.808594 21.253906 C 37.808594 21.3125 37.78125 21.394531 37.828125 21.417969 C 37.886719 21.460938 37.925781 21.371094 37.972656 21.347656 C 38.261719 21.101562 38.578125 20.898438 38.917969 20.738281 C 39.21875 20.59375 39.53125 20.5 39.878906 20.519531 C 40.53125 20.558594 41 20.894531 41.300781 21.476562 C 41.457031 21.78125 41.523438 22.117188 41.554688 22.460938 L 41.582031 23.183594 L 41.59375 25.359375 C 41.601562 25.527344 41.660156 25.632812 41.824219 25.695312 C 41.996094 25.75 42.171875 25.792969 42.351562 25.820312 C 42.507812 25.839844 42.515625 25.871094 42.527344 26.019531 L 42.527344 26.066406 C 42.507812 26.402344 42.488281 26.410156 42.15625 26.390625 C 41.429688 26.351562 40.703125 26.351562 39.976562 26.390625 C 39.878906 26.402344 39.78125 26.390625 39.691406 26.402344 C 39.632812 26.402344 39.59375 26.390625 39.585938 26.332031 C 39.566406 26.203125 39.546875 26.078125 39.574219 25.9375 C 39.585938 25.878906 39.613281 25.851562 39.683594 25.839844 L 40.128906 25.769531 C 40.289062 25.726562 40.375 25.625 40.394531 25.480469 L 40.414062 25.203125 L 40.402344 23.144531 C 40.402344 22.910156 40.394531 22.671875 40.34375 22.4375 C 40.226562 21.933594 39.847656 21.570312 39.335938 21.519531 C 38.886719 21.472656 38.480469 21.589844 38.109375 21.835938 C 37.921875 21.953125 37.84375 22.121094 37.84375 22.328125 L 37.84375 23.816406 C 37.84375 23.785156 37.84375 23.785156 37.855469 23.785156 Z M 37.839844 23.765625 " fill-opacity="1" fill-rule="nonzero"/><g clip-path="url(#5c1084c13a)"><path fill="#ffffff" d="M 66.335938 20.980469 C 66.230469 20.261719 65.96875 19.621094 65.511719 19.058594 C 65.105469 18.554688 64.605469 18.179688 64.011719 17.9375 C 63.398438 17.679688 62.746094 17.601562 62.085938 17.582031 C 61.8125 17.570312 58.09375 17.632812 57.824219 17.582031 C 57.753906 17.570312 57.707031 17.59375 57.667969 17.652344 C 57.617188 17.722656 57.570312 17.800781 57.539062 17.878906 C 57.421875 18.144531 57.421875 18.125 57.703125 18.164062 C 57.9375 18.203125 58.160156 18.222656 58.386719 18.292969 C 58.589844 18.359375 58.734375 18.476562 58.785156 18.703125 C 58.804688 18.8125 58.824219 22.277344 58.824219 23.894531 L 58.785156 25.046875 C 58.773438 25.136719 58.765625 25.226562 58.734375 25.304688 C 58.695312 25.421875 58.628906 25.519531 58.511719 25.570312 C 58.382812 25.632812 58.246094 25.667969 58.105469 25.679688 C 57.839844 25.707031 57.800781 25.71875 57.714844 26.011719 L 57.6875 26.121094 C 57.667969 26.25 57.675781 26.269531 57.804688 26.269531 L 60.710938 26.296875 L 61.851562 26.277344 L 62.640625 26.179688 C 63.535156 26.011719 64.332031 25.636719 65.011719 25.039062 C 65.40625 24.6875 65.71875 24.273438 65.945312 23.796875 C 66.21875 23.246094 66.335938 22.644531 66.367188 22.035156 C 66.414062 21.691406 66.394531 21.335938 66.335938 20.980469 Z M 64.925781 22.378906 C 64.886719 23.007812 64.761719 23.617188 64.441406 24.171875 C 64.03125 24.890625 63.449219 25.390625 62.640625 25.566406 C 62.289062 25.640625 61.9375 25.675781 61.570312 25.628906 C 61.308594 25.597656 61.054688 25.566406 60.8125 25.480469 C 60.375 25.320312 60.21875 25.046875 60.210938 24.613281 L 60.199219 18.675781 C 60.199219 18.320312 60.355469 18.246094 60.609375 18.234375 C 60.988281 18.203125 61.378906 18.214844 61.757812 18.253906 C 62.164062 18.292969 62.554688 18.390625 62.933594 18.542969 C 63.214844 18.660156 63.472656 18.820312 63.703125 19.023438 C 64.230469 19.476562 64.578125 20.046875 64.773438 20.71875 C 64.929688 21.257812 64.957031 21.8125 64.929688 22.363281 Z M 74.425781 23.34375 C 74.425781 23.285156 74.425781 23.234375 74.414062 23.175781 C 74.328125 22.632812 74.042969 22.222656 73.605469 21.90625 C 73.324219 21.699219 73.003906 21.5625 72.671875 21.460938 C 72.613281 21.441406 72.566406 21.421875 72.507812 21.414062 C 72.515625 21.363281 72.546875 21.355469 72.574219 21.34375 C 72.769531 21.246094 72.953125 21.136719 73.121094 20.988281 C 73.421875 20.734375 73.617188 20.417969 73.722656 20.035156 C 73.78125 19.828125 73.78125 19.621094 73.761719 19.402344 C 73.730469 18.863281 73.492188 18.433594 73.050781 18.125 C 72.601562 17.789062 72.078125 17.652344 71.535156 17.640625 C 70.484375 17.621094 69.421875 17.640625 68.371094 17.640625 C 68.070312 17.640625 67.769531 17.660156 67.457031 17.613281 C 67.398438 17.601562 67.316406 17.582031 67.273438 17.652344 C 67.203125 17.78125 67.117188 17.90625 67.085938 18.054688 C 67.078125 18.125 67.097656 18.164062 67.175781 18.171875 L 67.847656 18.273438 C 68.109375 18.3125 68.296875 18.460938 68.3125 18.695312 C 68.332031 18.859375 68.34375 19.023438 68.34375 19.1875 L 68.324219 21.027344 L 68.3125 24.671875 C 68.3125 24.886719 68.285156 25.097656 68.246094 25.3125 C 68.222656 25.464844 68.140625 25.5625 67.992188 25.609375 C 67.796875 25.667969 67.613281 25.726562 67.40625 25.726562 C 67.28125 25.714844 67.195312 25.769531 67.15625 25.894531 C 67.117188 25.980469 67.085938 26.082031 67.066406 26.167969 C 67.046875 26.289062 67.078125 26.328125 67.195312 26.3125 C 67.28125 26.304688 70.492188 26.382812 71.097656 26.324219 C 71.457031 26.285156 71.808594 26.234375 72.167969 26.125 C 72.777344 25.929688 73.34375 25.644531 73.789062 25.160156 C 74.160156 24.765625 74.375 24.292969 74.394531 23.742188 C 74.421875 23.613281 74.421875 23.488281 74.421875 23.347656 Z M 69.703125 19.308594 L 69.734375 18.519531 C 69.734375 18.371094 69.792969 18.304688 69.9375 18.273438 C 70.171875 18.226562 70.40625 18.246094 70.636719 18.253906 C 70.871094 18.273438 71.09375 18.304688 71.328125 18.371094 C 71.757812 18.5 72.085938 18.746094 72.28125 19.160156 C 72.371094 19.351562 72.417969 19.550781 72.417969 19.761719 C 72.429688 20.039062 72.410156 20.304688 72.300781 20.566406 C 72.136719 20.933594 71.875 21.167969 71.496094 21.238281 C 71.113281 21.308594 70.035156 21.277344 69.871094 21.277344 C 69.722656 21.277344 69.714844 21.257812 69.714844 21.109375 L 69.714844 20.183594 C 69.691406 19.894531 69.6875 19.605469 69.703125 19.316406 Z M 72.867188 24.605469 C 72.699219 25.050781 72.398438 25.355469 71.972656 25.519531 C 71.738281 25.609375 71.503906 25.664062 71.257812 25.648438 C 70.957031 25.640625 70.65625 25.648438 70.355469 25.589844 C 69.945312 25.5 69.761719 25.109375 69.730469 24.824219 C 69.683594 24.320312 69.710938 23.808594 69.703125 23.433594 L 69.703125 22.132812 C 69.703125 21.976562 69.722656 21.925781 69.886719 21.925781 L 70.804688 21.9375 L 71.425781 22.007812 C 71.863281 22.109375 72.261719 22.277344 72.574219 22.621094 C 72.828125 22.894531 72.964844 23.230469 72.992188 23.59375 C 73.023438 23.9375 73.003906 24.273438 72.875 24.597656 Z M 72.867188 24.605469 " fill-opacity="1" fill-rule="nonzero"/></g><path fill="#ffffff" d="M 48.144531 21.640625 L 48.398438 21.679688 C 48.671875 21.6875 48.992188 21.589844 49.089844 21.207031 C 49.144531 21.019531 49.144531 20.832031 49.089844 20.644531 C 49.03125 20.644531 49.003906 20.691406 48.972656 20.714844 C 48.828125 20.832031 48.660156 20.902344 48.488281 20.921875 C 48.136719 20.960938 47.785156 20.941406 47.445312 20.8125 L 46.96875 20.644531 C 46.632812 20.535156 46.289062 20.488281 45.9375 20.507812 C 45.441406 20.546875 44.972656 20.714844 44.535156 20.949219 C 44.066406 21.207031 43.738281 21.589844 43.582031 22.113281 C 43.492188 22.417969 43.484375 22.734375 43.523438 23.046875 C 43.621094 23.769531 43.988281 24.269531 44.652344 24.535156 C 44.691406 24.546875 44.71875 24.566406 44.757812 24.574219 C 44.84375 24.625 44.855469 24.675781 44.777344 24.742188 L 44.535156 24.910156 L 43.949219 25.273438 C 43.804688 25.363281 43.785156 25.433594 43.832031 25.589844 C 43.890625 25.777344 43.996094 25.933594 44.144531 26.0625 C 44.277344 26.179688 44.429688 26.269531 44.59375 26.339844 C 44.699219 26.386719 44.699219 26.410156 44.601562 26.496094 L 44.046875 26.902344 C 43.863281 27.042969 43.675781 27.1875 43.519531 27.375 C 43.289062 27.625 43.210938 27.921875 43.289062 28.257812 C 43.363281 28.609375 43.53125 28.90625 43.792969 29.144531 C 44.050781 29.386719 44.347656 29.550781 44.6875 29.636719 C 45.234375 29.796875 45.796875 29.804688 46.351562 29.699219 C 47.148438 29.550781 47.847656 29.191406 48.394531 28.585938 C 48.773438 28.179688 49 27.707031 49.019531 27.144531 C 49.039062 26.804688 48.953125 26.5 48.753906 26.230469 C 48.554688 25.957031 48.292969 25.785156 47.96875 25.707031 L 47.441406 25.605469 L 45.835938 25.464844 C 45.660156 25.453125 45.484375 25.421875 45.339844 25.335938 C 45.15625 25.214844 45.105469 24.988281 45.222656 24.84375 C 45.3125 24.734375 45.417969 24.664062 45.554688 24.65625 L 45.867188 24.625 C 46.5 24.5625 47.046875 24.308594 47.507812 23.867188 C 47.753906 23.636719 47.921875 23.359375 48.007812 23.03125 C 48.121094 22.605469 48.121094 22.164062 48.023438 21.734375 C 47.996094 21.625 48.007812 21.617188 48.140625 21.636719 Z M 45.761719 26.542969 C 45.820312 26.554688 45.878906 26.542969 45.9375 26.542969 C 46.34375 26.5625 46.761719 26.59375 47.164062 26.703125 C 47.292969 26.742188 47.417969 26.792969 47.542969 26.851562 C 47.929688 27.066406 48.078125 27.441406 48.027344 27.84375 C 47.96875 28.289062 47.726562 28.601562 47.347656 28.8125 C 47.09375 28.957031 46.8125 29.019531 46.519531 29.046875 C 46.414062 29.058594 46.316406 29.046875 46.207031 29.046875 C 45.867188 29.058594 45.535156 29.019531 45.214844 28.878906 C 44.992188 28.792969 44.808594 28.664062 44.640625 28.484375 C 44.300781 28.140625 44.144531 27.511719 44.652344 27 C 44.964844 26.710938 45.3125 26.507812 45.761719 26.542969 Z M 46.871094 23.472656 C 46.664062 23.992188 46.21875 24.152344 45.769531 24.082031 C 45.363281 24.023438 45.058594 23.796875 44.867188 23.421875 C 44.613281 22.917969 44.546875 22.398438 44.691406 21.855469 C 44.796875 21.453125 45.042969 21.148438 45.46875 21.078125 C 46.015625 20.980469 46.539062 21.175781 46.8125 21.726562 C 46.953125 21.996094 47.015625 22.320312 47.015625 22.78125 C 47.007812 22.96875 46.96875 23.226562 46.871094 23.472656 Z M 34.613281 22.800781 C 34.523438 22.269531 34.328125 21.785156 33.96875 21.382812 C 33.433594 20.78125 32.753906 20.519531 31.984375 20.515625 C 31.3125 20.507812 30.679688 20.703125 30.117188 21.058594 C 29.539062 21.40625 29.160156 21.910156 28.976562 22.566406 C 28.8125 23.136719 28.820312 23.71875 28.949219 24.296875 C 29.289062 25.855469 30.476562 26.523438 31.898438 26.425781 C 32.316406 26.398438 32.714844 26.257812 33.09375 26.070312 C 33.65625 25.804688 34.066406 25.382812 34.347656 24.820312 C 34.570312 24.359375 34.667969 23.863281 34.660156 23.304688 L 34.609375 22.800781 Z M 33.230469 24.988281 C 33.160156 25.214844 33.03125 25.402344 32.851562 25.554688 C 32.667969 25.703125 32.460938 25.789062 32.226562 25.816406 C 31.800781 25.875 31.402344 25.765625 31.039062 25.511719 C 30.777344 25.3125 30.574219 25.066406 30.429688 24.769531 C 30.027344 23.945312 29.960938 23.078125 30.164062 22.191406 C 30.230469 21.910156 30.367188 21.671875 30.574219 21.472656 C 30.933594 21.136719 31.351562 21.058594 31.820312 21.15625 C 32.269531 21.253906 32.605469 21.5 32.886719 21.875 C 33.167969 22.25 33.296875 22.683594 33.375 23.136719 C 33.414062 23.363281 33.414062 23.601562 33.421875 23.746094 C 33.421875 24.21875 33.382812 24.613281 33.238281 24.988281 Z M 55.871094 22.882812 C 55.800781 22.308594 55.589844 21.789062 55.191406 21.355469 C 54.664062 20.773438 53.984375 20.527344 53.226562 20.515625 C 52.574219 20.507812 51.96875 20.695312 51.414062 21.019531 C 50.792969 21.394531 50.363281 21.925781 50.199219 22.644531 C 49.996094 23.453125 50.074219 24.234375 50.433594 24.988281 C 50.753906 25.675781 51.296875 26.121094 52.019531 26.316406 C 52.816406 26.535156 53.574219 26.4375 54.316406 26.070312 C 54.957031 25.757812 55.414062 25.265625 55.675781 24.59375 C 55.832031 24.199219 55.890625 23.777344 55.898438 23.285156 C 55.910156 23.195312 55.890625 23.039062 55.871094 22.878906 Z M 54.527344 24.859375 C 54.371094 25.390625 54.042969 25.738281 53.488281 25.816406 C 53.078125 25.875 52.691406 25.777344 52.339844 25.539062 C 52.039062 25.332031 51.824219 25.058594 51.667969 24.734375 C 51.492188 24.386719 51.394531 24.023438 51.355469 23.648438 C 51.296875 23.1875 51.296875 22.734375 51.40625 22.269531 C 51.425781 22.179688 51.453125 22.089844 51.492188 22.003906 C 51.765625 21.316406 52.367188 21 53.078125 21.160156 C 53.554688 21.265625 53.914062 21.535156 54.1875 21.9375 C 54.453125 22.332031 54.578125 22.765625 54.636719 23.234375 C 54.664062 23.421875 54.675781 23.617188 54.664062 23.785156 C 54.664062 24.167969 54.636719 24.523438 54.523438 24.867188 Z M 54.527344 24.859375 " fill-opacity="1" fill-rule="nonzero"/></svg>