<svg xmlns="http://www.w3.org/2000/svg" xmlns:xlink="http://www.w3.org/1999/xlink" width="100" zoomAndPan="magnify" viewBox="0 0 75 37.5" height="50" preserveAspectRatio="xMidYMid meet" version="1.0"><defs><g/><clipPath id="9577477752"><path d="M 0.492188 13 L 8 13 L 8 24 L 0.492188 24 Z M 0.492188 13 " clip-rule="nonzero"/></clipPath><clipPath id="55dfc2e372"><path d="M 0.492188 12 L 14.5 12 L 14.5 27.511719 L 0.492188 27.511719 Z M 0.492188 12 " clip-rule="nonzero"/></clipPath><clipPath id="d9760b1f5d"><path d="M 0.492188 8.371094 L 6 8.371094 L 6 24 L 0.492188 24 Z M 0.492188 8.371094 " clip-rule="nonzero"/></clipPath></defs><path fill="#cbcbcb" d="M 9.71875 15.359375 L 7.777344 17.132812 L 5.980469 13.570312 L 6.910156 11.519531 C 7.152344 11.105469 7.53125 11.109375 7.765625 11.519531 Z M 9.71875 15.359375 " fill-opacity="1" fill-rule="nonzero"/><g clip-path="url(#9577477752)"><path fill="#cbcbcb" d="M 5.980469 13.570312 L 7.777344 17.132812 L 0.53125 23.75 Z M 5.980469 13.570312 " fill-opacity="1" fill-rule="nonzero"/></g><g clip-path="url(#55dfc2e372)"><path fill="#ffffff" d="M 11.839844 12.652344 C 12.1875 12.328125 12.542969 12.4375 12.636719 12.902344 L 14.523438 23.664062 L 8.269531 27.347656 C 8.050781 27.46875 7.46875 27.519531 7.46875 27.519531 C 7.46875 27.519531 6.941406 27.457031 6.738281 27.339844 L 0.53125 23.75 Z M 11.839844 12.652344 " fill-opacity="1" fill-rule="nonzero"/></g><g clip-path="url(#d9760b1f5d)"><path fill="#cbcbcb" d="M 5.980469 13.570312 L 0.53125 23.75 L 2.957031 8.871094 C 3.046875 8.40625 3.316406 8.363281 3.554688 8.769531 Z M 5.980469 13.570312 " fill-opacity="1" fill-rule="nonzero"/></g><g fill="#ffffff" fill-opacity="1"><g transform="translate(18.956315, 24.694326)"><g><path d="M 7.15625 -9.1875 L 7.15625 -10.160156 L 1.121094 -10.160156 L 1.121094 0 L 2.167969 0 L 2.167969 -4.585938 L 7.007812 -4.585938 L 7.007812 -5.570312 L 2.167969 -5.570312 L 2.167969 -9.1875 Z M 7.15625 -9.1875 "/></g></g></g><g fill="#ffffff" fill-opacity="1"><g transform="translate(26.410704, 24.694326)"><g><path d="M 2.179688 -8.84375 C 2.046875 -8.964844 1.882812 -9.039062 1.703125 -9.039062 C 1.523438 -9.039062 1.359375 -8.964844 1.238281 -8.84375 C 1.105469 -8.710938 1.046875 -8.542969 1.046875 -8.367188 C 1.046875 -8.1875 1.105469 -8.023438 1.238281 -7.902344 C 1.359375 -7.769531 1.523438 -7.707031 1.703125 -7.707031 C 1.882812 -7.707031 2.046875 -7.769531 2.179688 -7.902344 C 2.300781 -8.023438 2.375 -8.1875 2.375 -8.367188 C 2.375 -8.542969 2.300781 -8.710938 2.179688 -8.84375 Z M 2.242188 0 L 2.242188 -6.574219 L 1.195312 -6.574219 L 1.195312 0 Z M 2.242188 0 "/></g></g></g><g fill="#ffffff" fill-opacity="1"><g transform="translate(29.831658, 24.694326)"><g><path d="M 4.496094 -5.214844 L 4.496094 -6.574219 C 4.289062 -6.664062 4.0625 -6.707031 3.839844 -6.707031 C 3.09375 -6.707031 2.554688 -6.289062 2.210938 -5.484375 L 2.167969 -5.214844 L 2.167969 -6.574219 L 1.121094 -6.574219 L 1.121094 0 L 2.167969 0 L 2.167969 -3.285156 C 2.167969 -3.824219 2.285156 -4.300781 2.539062 -4.734375 C 2.660156 -4.960938 2.824219 -5.152344 3.019531 -5.304688 C 3.210938 -5.453125 3.449219 -5.542969 3.71875 -5.542969 C 3.988281 -5.542969 4.242188 -5.421875 4.496094 -5.214844 Z M 4.496094 -5.214844 "/></g></g></g><g fill="#ffffff" fill-opacity="1"><g transform="translate(34.477582, 24.694326)"><g><path d="M 7.542969 -3.4375 C 7.542969 -4.332031 7.183594 -5.109375 6.5 -5.78125 C 5.824219 -6.421875 5.019531 -6.753906 4.109375 -6.753906 C 3.152344 -6.753906 2.34375 -6.410156 1.671875 -5.738281 C 1 -5.0625 0.671875 -4.257812 0.671875 -3.316406 C 0.671875 -2.359375 1 -1.554688 1.671875 -0.894531 C 1.988281 -0.582031 2.34375 -0.34375 2.761719 -0.164062 C 3.183594 0.015625 3.675781 0.105469 4.257812 0.105469 C 4.839844 0.105469 5.40625 -0.0742188 5.976562 -0.433594 C 6.542969 -0.792969 6.960938 -1.300781 7.246094 -1.925781 L 6.050781 -1.925781 C 5.8125 -1.613281 5.527344 -1.375 5.183594 -1.195312 C 4.839844 -1.015625 4.480469 -0.941406 4.109375 -0.941406 C 3.539062 -0.941406 3.03125 -1.121094 2.585938 -1.492188 C 2.136719 -1.851562 1.851562 -2.316406 1.761719 -2.882812 L 7.542969 -2.882812 Z M 6.4375 -3.78125 L 1.777344 -3.78125 C 1.835938 -4.046875 1.941406 -4.300781 2.089844 -4.542969 C 2.570312 -5.316406 3.242188 -5.707031 4.109375 -5.707031 C 4.660156 -5.707031 5.152344 -5.527344 5.585938 -5.167969 C 6.035156 -4.796875 6.304688 -4.332031 6.4375 -3.78125 Z M 6.4375 -3.78125 "/></g></g></g><g fill="#ffffff" fill-opacity="1"><g transform="translate(42.619148, 24.694326)"><g><path d="M 2.167969 0 L 2.167969 -1.121094 C 2.210938 -1.03125 2.285156 -0.957031 2.34375 -0.894531 C 2.972656 -0.195312 3.734375 0.148438 4.644531 0.148438 C 5.542969 0.148438 6.304688 -0.195312 6.929688 -0.894531 C 7.527344 -1.570312 7.84375 -2.359375 7.84375 -3.285156 C 7.84375 -4.199219 7.527344 -4.988281 6.929688 -5.675781 C 6.304688 -6.363281 5.542969 -6.722656 4.644531 -6.722656 C 3.734375 -6.722656 2.972656 -6.363281 2.34375 -5.675781 C 2.285156 -5.601562 2.210938 -5.527344 2.167969 -5.4375 L 2.167969 -11.203125 L 1.121094 -11.203125 L 1.121094 0 Z M 6.796875 -3.285156 C 6.796875 -2.644531 6.574219 -2.078125 6.125 -1.613281 C 5.675781 -1.136719 5.125 -0.894531 4.480469 -0.894531 C 3.824219 -0.894531 3.273438 -1.136719 2.824219 -1.613281 C 2.375 -2.078125 2.167969 -2.644531 2.167969 -3.285156 C 2.167969 -3.914062 2.375 -4.480469 2.824219 -4.960938 C 3.273438 -5.4375 3.824219 -5.675781 4.480469 -5.675781 C 5.125 -5.675781 5.675781 -5.4375 6.125 -4.960938 C 6.574219 -4.480469 6.796875 -3.914062 6.796875 -3.285156 Z M 6.796875 -3.285156 "/></g></g></g><g fill="#ffffff" fill-opacity="1"><g transform="translate(51.134181, 24.694326)"><g><path d="M 6.347656 -3.285156 C 6.347656 -2.644531 6.125 -2.078125 5.675781 -1.613281 C 5.230469 -1.136719 4.675781 -0.894531 4.035156 -0.894531 C 3.375 -0.894531 2.824219 -1.136719 2.375 -1.613281 C 1.925781 -2.078125 1.71875 -2.644531 1.71875 -3.285156 C 1.71875 -3.914062 1.925781 -4.480469 2.375 -4.960938 C 2.824219 -5.4375 3.375 -5.675781 4.035156 -5.675781 C 4.675781 -5.675781 5.230469 -5.4375 5.675781 -4.960938 C 6.125 -4.480469 6.347656 -3.914062 6.347656 -3.285156 Z M 7.394531 0 L 7.394531 -6.574219 L 6.347656 -6.574219 L 6.347656 -5.4375 C 6.289062 -5.527344 6.214844 -5.601562 6.15625 -5.675781 C 5.527344 -6.363281 4.765625 -6.722656 3.867188 -6.722656 C 2.957031 -6.722656 2.195312 -6.363281 1.570312 -5.675781 C 0.972656 -4.988281 0.671875 -4.199219 0.671875 -3.285156 C 0.671875 -2.359375 0.972656 -1.570312 1.570312 -0.894531 C 2.195312 -0.195312 2.957031 0.148438 3.867188 0.148438 C 4.765625 0.148438 5.527344 -0.195312 6.15625 -0.894531 C 6.214844 -0.957031 6.289062 -1.03125 6.347656 -1.121094 L 6.347656 0 Z M 7.394531 0 "/></g></g></g><g fill="#ffffff" fill-opacity="1"><g transform="translate(59.649214, 24.694326)"><g><path d="M 2.0625 -0.925781 C 1.808594 -1.105469 1.613281 -1.402344 1.507812 -1.835938 L 0.402344 -1.835938 C 0.628906 -0.476562 1.492188 0.195312 3.019531 0.195312 C 3.375 0.195312 3.703125 0.164062 4.019531 0.0742188 C 4.332031 -0.015625 4.601562 -0.132812 4.855469 -0.296875 C 5.363281 -0.640625 5.617188 -1.164062 5.617188 -1.867188 C 5.617188 -2.585938 5.289062 -3.09375 4.601562 -3.421875 C 4.316406 -3.554688 4.003906 -3.660156 3.660156 -3.734375 C 3.332031 -3.808594 3.019531 -3.898438 2.734375 -3.988281 C 2.433594 -4.078125 2.195312 -4.199219 2 -4.332031 C 1.808594 -4.464844 1.703125 -4.675781 1.703125 -4.972656 C 1.703125 -5.273438 1.824219 -5.496094 2.0625 -5.632812 C 2.300781 -5.78125 2.585938 -5.855469 2.898438 -5.855469 C 3.226562 -5.855469 3.511719 -5.78125 3.734375 -5.660156 C 3.957031 -5.542969 4.136719 -5.304688 4.242188 -4.945312 L 5.363281 -4.945312 C 5.230469 -5.601562 4.945312 -6.066406 4.527344 -6.320312 C 4.09375 -6.589844 3.570312 -6.722656 2.929688 -6.722656 C 2.300781 -6.722656 1.746094 -6.542969 1.285156 -6.214844 C 0.835938 -5.871094 0.597656 -5.378906 0.597656 -4.71875 C 0.597656 -4.40625 0.6875 -4.125 0.851562 -3.882812 C 1.03125 -3.628906 1.285156 -3.4375 1.613281 -3.285156 C 1.914062 -3.152344 2.226562 -3.046875 2.554688 -2.957031 C 2.882812 -2.882812 3.195312 -2.792969 3.496094 -2.703125 C 4.167969 -2.480469 4.511719 -2.152344 4.511719 -1.734375 C 4.511719 -1.015625 4.035156 -0.671875 3.078125 -0.671875 C 2.675781 -0.671875 2.332031 -0.746094 2.0625 -0.925781 Z M 2.0625 -0.925781 "/></g></g></g><g fill="#ffffff" fill-opacity="1"><g transform="translate(65.654554, 24.694326)"><g><path d="M 7.542969 -3.4375 C 7.542969 -4.332031 7.183594 -5.109375 6.5 -5.78125 C 5.824219 -6.421875 5.019531 -6.753906 4.109375 -6.753906 C 3.152344 -6.753906 2.34375 -6.410156 1.671875 -5.738281 C 1 -5.0625 0.671875 -4.257812 0.671875 -3.316406 C 0.671875 -2.359375 1 -1.554688 1.671875 -0.894531 C 1.988281 -0.582031 2.34375 -0.34375 2.761719 -0.164062 C 3.183594 0.015625 3.675781 0.105469 4.257812 0.105469 C 4.839844 0.105469 5.40625 -0.0742188 5.976562 -0.433594 C 6.542969 -0.792969 6.960938 -1.300781 7.246094 -1.925781 L 6.050781 -1.925781 C 5.8125 -1.613281 5.527344 -1.375 5.183594 -1.195312 C 4.839844 -1.015625 4.480469 -0.941406 4.109375 -0.941406 C 3.539062 -0.941406 3.03125 -1.121094 2.585938 -1.492188 C 2.136719 -1.851562 1.851562 -2.316406 1.761719 -2.882812 L 7.542969 -2.882812 Z M 6.4375 -3.78125 L 1.777344 -3.78125 C 1.835938 -4.046875 1.941406 -4.300781 2.089844 -4.542969 C 2.570312 -5.316406 3.242188 -5.707031 4.109375 -5.707031 C 4.660156 -5.707031 5.152344 -5.527344 5.585938 -5.167969 C 6.035156 -4.796875 6.304688 -4.332031 6.4375 -3.78125 Z M 6.4375 -3.78125 "/></g></g></g></svg>