<svg xmlns="http://www.w3.org/2000/svg" xmlns:xlink="http://www.w3.org/1999/xlink" width="100" zoomAndPan="magnify" viewBox="0 0 75 37.5" height="50" preserveAspectRatio="xMidYMid meet" version="1.0"><defs><clipPath id="f7732826f0"><path d="M 18 4.105469 L 57 4.105469 L 57 32.972656 L 18 32.972656 Z M 18 4.105469 " clip-rule="nonzero"/></clipPath></defs><g clip-path="url(#f7732826f0)"><path fill="#ffffff" d="M 36.363281 4.253906 C 34.550781 4.15625 32.511719 4.4375 30.519531 5.132812 C 27.351562 6.234375 23.925781 7.972656 21.460938 10.234375 C 18.535156 12.929688 18.066406 15.273438 18.257812 16.253906 C 18.945312 19.730469 23.824219 22 25.777344 23.679688 C 25.679688 23.730469 25.59375 23.777344 25.507812 23.824219 C 24.527344 24.300781 20.894531 26.179688 19.960938 28.199219 C 18.910156 30.492188 20.136719 32.132812 20.941406 32.355469 C 23.453125 33.042969 25.941406 31.84375 27.320312 29.820312 C 28.703125 27.792969 28.535156 25.148438 27.898438 23.945312 C 27.894531 23.925781 27.878906 23.914062 27.875 23.898438 C 28.125 23.75 28.382812 23.601562 28.644531 23.453125 C 29.140625 23.160156 29.628906 22.898438 30.054688 22.667969 C 29.816406 23.304688 29.640625 24.074219 29.550781 25.183594 C 29.441406 26.480469 29.988281 28.164062 30.695312 28.824219 C 31.007812 29.113281 31.386719 29.121094 31.621094 29.121094 C 32.449219 29.121094 32.824219 28.449219 33.238281 27.644531 C 33.746094 26.664062 34.199219 25.527344 34.199219 25.527344 C 34.199219 25.527344 33.636719 28.605469 35.179688 28.605469 C 35.746094 28.605469 36.308594 27.890625 36.5625 27.527344 L 36.5625 27.53125 C 36.5625 27.53125 36.570312 27.507812 36.601562 27.460938 C 36.664062 27.371094 36.691406 27.320312 36.691406 27.320312 L 36.691406 27.300781 C 36.921875 26.917969 37.421875 26.039062 38.171875 24.585938 C 39.144531 22.710938 40.078125 20.363281 40.078125 20.363281 C 40.167969 20.878906 40.289062 21.386719 40.449219 21.886719 C 40.617188 22.445312 40.972656 23.0625 41.257812 23.65625 C 41.027344 23.964844 40.886719 24.140625 40.886719 24.140625 C 40.886719 24.144531 40.890625 24.152344 40.894531 24.152344 C 40.714844 24.390625 40.511719 24.640625 40.300781 24.890625 C 39.53125 25.789062 38.617188 26.820312 38.496094 27.113281 C 38.351562 27.460938 38.386719 27.71875 38.664062 27.921875 C 38.867188 28.074219 39.230469 28.097656 39.609375 28.070312 C 40.300781 28.023438 40.785156 27.855469 41.019531 27.75 C 41.453125 27.597656 41.859375 27.390625 42.234375 27.125 C 42.984375 26.582031 43.441406 25.800781 43.398438 24.777344 C 43.375 24.207031 43.1875 23.640625 42.960938 23.109375 C 43.027344 23.015625 43.097656 22.914062 43.164062 22.816406 C 44.355469 21.109375 45.273438 19.234375 45.273438 19.234375 C 45.363281 19.75 45.488281 20.261719 45.648438 20.757812 C 45.792969 21.238281 46.074219 21.761719 46.332031 22.277344 C 45.214844 23.167969 44.523438 24.203125 44.28125 24.882812 C 43.835938 26.140625 44.1875 26.703125 44.84375 26.835938 C 45.136719 26.894531 45.558594 26.757812 45.871094 26.628906 C 46.335938 26.476562 46.769531 26.257812 47.167969 25.972656 C 47.917969 25.429688 48.644531 24.667969 48.597656 23.636719 C 48.578125 23.167969 48.449219 22.703125 48.273438 22.253906 C 49.21875 21.863281 50.441406 21.652344 52.007812 21.828125 C 55.351562 22.210938 56.007812 24.265625 55.882812 25.121094 C 55.757812 25.980469 55.054688 26.457031 54.820312 26.601562 C 54.585938 26.742188 54.511719 26.796875 54.53125 26.902344 C 54.558594 27.054688 54.667969 27.050781 54.867188 27.011719 C 55.144531 26.964844 56.621094 26.316406 56.6875 24.726562 C 56.785156 22.722656 54.820312 20.515625 51.34375 20.53125 L 51.335938 20.53125 C 50.128906 20.53125 48.9375 20.800781 47.855469 21.328125 C 47.5 20.625 47.132812 20.011719 47.074219 19.550781 C 47.003906 19.011719 46.925781 18.695312 47.007812 18.058594 C 47.09375 17.421875 47.472656 16.515625 47.464844 16.449219 C 47.457031 16.386719 47.378906 16.0625 46.605469 16.054688 C 45.832031 16.046875 45.164062 16.203125 45.085938 16.402344 C 44.949219 16.769531 44.84375 17.144531 44.769531 17.53125 C 44.628906 18.21875 43.21875 20.6875 42.417969 21.976562 C 42.152344 21.472656 41.933594 21.03125 41.886719 20.679688 C 41.8125 20.140625 41.734375 19.820312 41.816406 19.183594 C 41.902344 18.546875 42.28125 17.644531 42.277344 17.578125 C 42.269531 17.511719 42.191406 17.1875 41.417969 17.183594 C 40.640625 17.175781 39.972656 17.328125 39.894531 17.53125 C 39.816406 17.730469 39.730469 18.203125 39.574219 18.65625 C 39.417969 19.113281 37.539062 23.222656 37.046875 24.292969 C 36.792969 24.835938 36.578125 25.273438 36.417969 25.566406 C 36.394531 25.617188 36.378906 25.644531 36.367188 25.667969 C 36.386719 25.640625 36.398438 25.609375 36.398438 25.621094 C 36.265625 25.875 36.1875 26.015625 36.1875 26.015625 L 36.1875 26.019531 C 36.085938 26.210938 35.96875 26.382812 35.917969 26.382812 C 35.878906 26.382812 35.800781 25.886719 35.933594 25.207031 C 36.214844 23.777344 36.882812 21.558594 36.878906 21.480469 C 36.871094 21.441406 37 21.054688 36.4375 20.847656 C 35.890625 20.65625 35.695312 20.980469 35.644531 20.980469 C 35.597656 20.980469 35.5625 21.097656 35.5625 21.097656 C 35.5625 21.097656 36.164062 18.59375 34.394531 18.59375 C 33.285156 18.59375 31.746094 19.785156 30.992188 20.867188 C 30.519531 21.121094 29.488281 21.671875 28.40625 22.257812 C 27.992188 22.480469 27.566406 22.710938 27.164062 22.929688 C 27.136719 22.898438 27.109375 22.871094 27.082031 22.839844 C 24.929688 20.582031 20.957031 18.988281 21.125 15.957031 C 21.183594 14.855469 21.578125 11.957031 28.761719 8.4375 C 34.65625 5.554688 39.363281 6.34375 40.175781 8.105469 C 41.339844 10.613281 37.65625 15.285156 31.539062 15.957031 C 29.207031 16.210938 28.132812 15.222656 27.828125 14.890625 C 27.507812 14.542969 27.457031 14.523438 27.339844 14.589844 C 27.140625 14.695312 27.265625 15.003906 27.339844 15.1875 C 27.519531 15.652344 28.324219 16.382812 29.601562 16.796875 C 30.726562 17.15625 33.308594 17.460938 36.617188 16.203125 C 40.328125 14.796875 43.164062 10.976562 42.316406 7.699219 C 41.777344 5.621094 39.382812 4.414062 36.363281 4.253906 Z M 34.390625 20.070312 C 34.484375 20.078125 34.554688 20.113281 34.59375 20.179688 C 34.804688 20.527344 33.863281 23.097656 33.621094 23.679688 C 33.238281 24.605469 32.425781 26.96875 31.929688 26.84375 C 31.511719 26.738281 31.25 24.9375 31.847656 23.164062 C 32.148438 22.273438 32.785156 21.210938 33.164062 20.796875 C 33.617188 20.296875 34.109375 20.050781 34.390625 20.070312 Z M 46.882812 22.984375 C 46.953125 23.191406 46.988281 23.410156 46.996094 23.625 C 46.988281 24.953125 46.019531 25.449219 45.4375 25.65625 C 45.320312 25.574219 45.335938 25.296875 45.738281 24.433594 C 45.894531 24.097656 46.253906 23.53125 46.882812 22.984375 Z M 26.691406 24.449219 C 27.191406 26.246094 26.710938 27.828125 25.542969 29.078125 C 24.441406 30.261719 22.886719 30.710938 22.222656 30.335938 C 21.503906 29.925781 21.789062 28.175781 23.152344 26.914062 C 23.984375 26.144531 25.054688 25.4375 25.761719 25 C 25.925781 24.90625 26.15625 24.761719 26.445312 24.589844 C 26.496094 24.5625 26.519531 24.550781 26.519531 24.550781 C 26.574219 24.515625 26.632812 24.488281 26.691406 24.449219 Z M 41.792969 24.65625 C 41.792969 24.6875 41.800781 24.71875 41.800781 24.753906 C 41.792969 25.808594 40.757812 26.523438 40.289062 26.804688 L 40.292969 26.804688 L 40.292969 26.808594 C 40.132812 26.890625 39.980469 26.945312 39.910156 26.902344 C 39.855469 26.871094 39.976562 26.761719 39.976562 26.761719 C 39.976562 26.761719 40.8125 25.878906 41.140625 25.476562 C 41.332031 25.242188 41.554688 24.964844 41.792969 24.65625 Z M 41.792969 24.65625 " fill-opacity="1" fill-rule="nonzero"/></g></svg>