<svg xmlns="http://www.w3.org/2000/svg" xmlns:xlink="http://www.w3.org/1999/xlink" width="100" zoomAndPan="magnify" viewBox="0 0 75 37.5" height="50" preserveAspectRatio="xMidYMid meet" version="1.0"><defs><g/><clipPath id="9068cb109b"><path d="M 0.492188 7.03125 L 25.207031 7.03125 L 25.207031 30 L 0.492188 30 Z M 0.492188 7.03125 " clip-rule="nonzero"/></clipPath></defs><g clip-path="url(#9068cb109b)"><path fill="#ffffff" d="M 20.796875 14.679688 C 20.539062 14.59375 20.273438 14.507812 20 14.429688 C 20.046875 14.242188 20.089844 14.0625 20.125 13.882812 C 20.726562 10.933594 20.332031 8.5625 18.992188 7.78125 C 17.703125 7.03125 15.601562 7.8125 13.476562 9.679688 C 13.269531 9.859375 13.066406 10.050781 12.859375 10.25 C 12.722656 10.117188 12.589844 9.988281 12.453125 9.867188 C 10.226562 7.871094 7.992188 7.027344 6.652344 7.8125 C 5.367188 8.5625 4.984375 10.796875 5.527344 13.585938 C 5.578125 13.859375 5.640625 14.132812 5.710938 14.414062 C 5.394531 14.503906 5.089844 14.601562 4.796875 14.703125 C 2.183594 15.621094 0.519531 17.0625 0.519531 18.558594 C 0.519531 20.101562 2.308594 21.652344 5.027344 22.589844 C 5.242188 22.664062 5.464844 22.734375 5.695312 22.800781 C 5.621094 23.101562 5.554688 23.398438 5.5 23.6875 C 4.984375 26.433594 5.386719 28.613281 6.667969 29.359375 C 7.992188 30.128906 10.214844 29.335938 12.378906 27.425781 C 12.550781 27.277344 12.722656 27.117188 12.894531 26.949219 C 13.117188 27.164062 13.339844 27.371094 13.5625 27.5625 C 15.65625 29.382812 17.726562 30.121094 19.007812 29.371094 C 20.332031 28.597656 20.761719 26.257812 20.203125 23.410156 C 20.160156 23.191406 20.109375 22.96875 20.054688 22.742188 C 20.210938 22.695312 20.363281 22.648438 20.515625 22.597656 C 23.339844 21.652344 25.179688 20.121094 25.179688 18.558594 C 25.179688 17.058594 23.460938 15.605469 20.796875 14.679688 Z M 20.183594 21.589844 C 20.046875 21.632812 19.910156 21.675781 19.769531 21.71875 C 19.457031 20.722656 19.035156 19.660156 18.519531 18.5625 C 19.011719 17.492188 19.414062 16.445312 19.71875 15.453125 C 19.972656 15.527344 20.214844 15.605469 20.453125 15.6875 C 22.734375 16.480469 24.125 17.65625 24.125 18.558594 C 24.125 19.519531 22.625 20.769531 20.183594 21.589844 Z M 19.167969 23.617188 C 19.417969 24.875 19.453125 26.011719 19.289062 26.902344 C 19.140625 27.703125 18.84375 28.234375 18.480469 28.449219 C 17.703125 28.902344 16.042969 28.3125 14.25 26.753906 C 14.042969 26.578125 13.835938 26.386719 13.628906 26.183594 C 14.324219 25.417969 15.019531 24.523438 15.695312 23.53125 C 16.886719 23.425781 18.015625 23.25 19.035156 23.011719 C 19.085938 23.21875 19.128906 23.417969 19.167969 23.617188 Z M 8.925781 28.371094 C 8.167969 28.640625 7.5625 28.648438 7.195312 28.4375 C 6.417969 27.984375 6.09375 26.234375 6.535156 23.886719 C 6.585938 23.621094 6.648438 23.34375 6.714844 23.0625 C 7.726562 23.285156 8.84375 23.449219 10.039062 23.546875 C 10.722656 24.515625 11.4375 25.40625 12.15625 26.1875 C 12 26.339844 11.84375 26.488281 11.6875 26.625 C 10.730469 27.46875 9.773438 28.070312 8.925781 28.371094 Z M 5.367188 21.582031 C 4.167969 21.167969 3.171875 20.628906 2.492188 20.039062 C 1.878906 19.511719 1.570312 18.984375 1.570312 18.558594 C 1.570312 17.652344 2.910156 16.492188 5.144531 15.707031 C 5.414062 15.613281 5.699219 15.523438 5.992188 15.4375 C 6.300781 16.453125 6.707031 17.511719 7.195312 18.582031 C 6.699219 19.671875 6.289062 20.75 5.976562 21.773438 C 5.769531 21.714844 5.566406 21.648438 5.367188 21.582031 Z M 6.5625 13.382812 C 6.097656 10.992188 6.40625 9.1875 7.179688 8.734375 C 8.003906 8.25 9.828125 8.9375 11.753906 10.664062 C 11.875 10.773438 12 10.890625 12.125 11.007812 C 11.40625 11.785156 10.699219 12.671875 10.023438 13.632812 C 8.863281 13.742188 7.75 13.917969 6.730469 14.152344 C 6.667969 13.890625 6.609375 13.632812 6.5625 13.382812 Z M 17.199219 16.035156 C 16.957031 15.609375 16.703125 15.195312 16.449219 14.789062 C 17.238281 14.890625 17.988281 15.023438 18.699219 15.1875 C 18.484375 15.875 18.222656 16.59375 17.910156 17.332031 C 17.6875 16.902344 17.449219 16.472656 17.199219 16.035156 Z M 12.859375 11.769531 C 13.347656 12.300781 13.835938 12.894531 14.3125 13.539062 C 13.832031 13.515625 13.339844 13.503906 12.847656 13.503906 C 12.363281 13.503906 11.878906 13.515625 11.398438 13.539062 C 11.875 12.898438 12.367188 12.304688 12.859375 11.769531 Z M 8.496094 16.042969 C 8.25 16.472656 8.019531 16.902344 7.800781 17.332031 C 7.492188 16.597656 7.230469 15.875 7.015625 15.175781 C 7.71875 15.019531 8.46875 14.886719 9.25 14.789062 C 8.992188 15.195312 8.738281 15.617188 8.496094 16.042969 Z M 9.273438 22.402344 C 8.464844 22.3125 7.703125 22.1875 7 22.035156 C 7.21875 21.324219 7.488281 20.585938 7.800781 19.835938 C 8.019531 20.265625 8.253906 20.695312 8.5 21.125 C 8.75 21.558594 9.007812 21.988281 9.273438 22.402344 Z M 12.890625 25.421875 C 12.390625 24.878906 11.894531 24.277344 11.40625 23.628906 C 11.878906 23.648438 12.359375 23.65625 12.847656 23.65625 C 13.351562 23.65625 13.847656 23.644531 14.339844 23.625 C 13.859375 24.28125 13.371094 24.886719 12.890625 25.421875 Z M 17.917969 19.796875 C 18.25 20.554688 18.527344 21.289062 18.746094 21.988281 C 18.03125 22.152344 17.261719 22.285156 16.445312 22.382812 C 16.703125 21.976562 16.957031 21.550781 17.203125 21.117188 C 17.457031 20.675781 17.695312 20.234375 17.917969 19.796875 Z M 16.289062 20.585938 C 15.90625 21.261719 15.507812 21.90625 15.109375 22.511719 C 14.375 22.566406 13.621094 22.59375 12.847656 22.59375 C 12.082031 22.59375 11.335938 22.570312 10.617188 22.523438 C 10.199219 21.90625 9.792969 21.257812 9.410156 20.589844 C 9.027344 19.925781 8.675781 19.253906 8.359375 18.582031 C 8.675781 17.914062 9.027344 17.242188 9.40625 16.574219 C 9.789062 15.910156 10.191406 15.265625 10.605469 14.652344 C 11.335938 14.597656 12.089844 14.566406 12.847656 14.566406 C 13.613281 14.566406 14.367188 14.597656 15.097656 14.652344 C 15.507812 15.261719 15.90625 15.902344 16.289062 16.570312 C 16.675781 17.246094 17.03125 17.914062 17.351562 18.570312 C 17.03125 19.234375 16.675781 19.910156 16.289062 20.585938 Z M 18.464844 8.703125 C 19.289062 9.183594 19.613281 11.121094 19.09375 13.667969 C 19.058594 13.828125 19.023438 13.992188 18.980469 14.160156 C 17.957031 13.921875 16.847656 13.746094 15.683594 13.636719 C 15.007812 12.660156 14.304688 11.773438 13.597656 11.007812 C 13.789062 10.824219 13.980469 10.648438 14.167969 10.480469 C 15.988281 8.882812 17.691406 8.25 18.464844 8.703125 Z M 12.847656 16.332031 C 14.066406 16.332031 15.050781 17.328125 15.050781 18.558594 C 15.050781 19.785156 14.066406 20.78125 12.847656 20.78125 C 11.632812 20.78125 10.648438 19.785156 10.648438 18.558594 C 10.648438 17.328125 11.632812 16.332031 12.847656 16.332031 Z M 12.847656 16.332031 " fill-opacity="1" fill-rule="nonzero"/></g><g fill="#ffffff" fill-opacity="1"><g transform="translate(30.511695, 24.144056)"><g><path d="M 2.492188 -5.773438 L 2.492188 -10.535156 L 5.207031 -10.535156 C 5.910156 -10.535156 6.480469 -10.3125 6.910156 -9.863281 C 7.320312 -9.417969 7.542969 -8.867188 7.542969 -8.179688 C 7.542969 -7.492188 7.320312 -6.925781 6.875 -6.460938 C 6.425781 -5.996094 5.878906 -5.773438 5.207031 -5.773438 Z M 8.746094 -8.164062 C 8.746094 -9.160156 8.371094 -10.019531 7.648438 -10.6875 C 6.941406 -11.34375 6.066406 -11.6875 5.035156 -11.6875 L 1.289062 -11.6875 L 1.289062 0 L 2.492188 0 L 2.492188 -4.621094 L 3.882812 -4.621094 L 7.320312 0 L 8.9375 0 L 5.328125 -4.621094 C 6.238281 -4.675781 7.011719 -5 7.648438 -5.601562 C 8.371094 -6.273438 8.746094 -7.132812 8.746094 -8.164062 Z M 8.746094 -8.164062 "/></g></g></g><g fill="#ffffff" fill-opacity="1"><g transform="translate(39.85897, 24.144056)"><g><path d="M 8.679688 -3.953125 C 8.679688 -4.984375 8.265625 -5.878906 7.476562 -6.652344 C 6.703125 -7.390625 5.773438 -7.769531 4.726562 -7.769531 C 3.625 -7.769531 2.699219 -7.371094 1.925781 -6.597656 C 1.152344 -5.824219 0.773438 -4.898438 0.773438 -3.816406 C 0.773438 -2.714844 1.152344 -1.789062 1.925781 -1.03125 C 2.285156 -0.671875 2.699219 -0.394531 3.179688 -0.1875 C 3.660156 0.015625 4.226562 0.121094 4.898438 0.121094 C 5.566406 0.121094 6.222656 -0.0859375 6.875 -0.5 C 7.527344 -0.910156 8.007812 -1.496094 8.335938 -2.21875 L 6.960938 -2.21875 C 6.683594 -1.855469 6.359375 -1.582031 5.964844 -1.375 C 5.566406 -1.167969 5.15625 -1.082031 4.726562 -1.082031 C 4.074219 -1.082031 3.488281 -1.289062 2.972656 -1.71875 C 2.457031 -2.132812 2.132812 -2.664062 2.027344 -3.316406 L 8.679688 -3.316406 Z M 7.40625 -4.347656 L 2.046875 -4.347656 C 2.113281 -4.65625 2.234375 -4.949219 2.40625 -5.222656 C 2.957031 -6.117188 3.730469 -6.566406 4.726562 -6.566406 C 5.363281 -6.566406 5.929688 -6.359375 6.425781 -5.945312 C 6.941406 -5.515625 7.253906 -4.984375 7.40625 -4.347656 Z M 7.40625 -4.347656 "/></g></g></g><g fill="#ffffff" fill-opacity="1"><g transform="translate(49.223427, 24.144056)"><g><path d="M 7.304688 -3.78125 C 7.304688 -3.042969 7.046875 -2.390625 6.53125 -1.855469 C 6.015625 -1.304688 5.378906 -1.03125 4.640625 -1.03125 C 3.882812 -1.03125 3.25 -1.304688 2.734375 -1.855469 C 2.21875 -2.390625 1.976562 -3.042969 1.976562 -3.78125 C 1.976562 -4.503906 2.21875 -5.15625 2.734375 -5.707031 C 3.25 -6.253906 3.882812 -6.53125 4.640625 -6.53125 C 5.378906 -6.53125 6.015625 -6.253906 6.53125 -5.707031 C 7.046875 -5.15625 7.304688 -4.503906 7.304688 -3.78125 Z M 8.507812 0 L 8.507812 -7.5625 L 7.304688 -7.5625 L 7.304688 -6.253906 C 7.234375 -6.359375 7.148438 -6.445312 7.082031 -6.53125 C 6.359375 -7.320312 5.480469 -7.734375 4.449219 -7.734375 C 3.402344 -7.734375 2.527344 -7.320312 1.804688 -6.53125 C 1.117188 -5.738281 0.773438 -4.828125 0.773438 -3.78125 C 0.773438 -2.714844 1.117188 -1.804688 1.804688 -1.03125 C 2.527344 -0.222656 3.402344 0.171875 4.449219 0.171875 C 5.480469 0.171875 6.359375 -0.222656 7.082031 -1.03125 C 7.148438 -1.101562 7.234375 -1.1875 7.304688 -1.289062 L 7.304688 0 Z M 8.507812 0 "/></g></g></g><g fill="#ffffff" fill-opacity="1"><g transform="translate(59.017446, 24.144056)"><g><path d="M 8.351562 -4.847656 C 8.113281 -5.6875 7.648438 -6.375 6.976562 -6.910156 C 6.273438 -7.441406 5.5 -7.714844 4.640625 -7.714844 C 3.558594 -7.714844 2.628906 -7.320312 1.890625 -6.546875 C 1.132812 -5.773438 0.773438 -4.847656 0.773438 -3.78125 C 0.773438 -2.699219 1.132812 -1.789062 1.890625 -0.996094 C 2.234375 -0.636719 2.628906 -0.34375 3.109375 -0.136719 C 3.574219 0.0703125 4.054688 0.171875 4.535156 0.171875 C 5.019531 0.171875 5.449219 0.121094 5.824219 -0.015625 C 7.027344 -0.445312 7.855469 -1.253906 8.285156 -2.476562 L 6.925781 -2.476562 C 6.683594 -2.046875 6.375 -1.703125 5.964844 -1.460938 C 5.550781 -1.203125 5.121094 -1.082031 4.640625 -1.082031 C 3.902344 -1.082031 3.28125 -1.339844 2.765625 -1.875 C 2.25 -2.40625 2.011719 -3.042969 2.011719 -3.78125 C 2.011719 -4.484375 2.25 -5.121094 2.765625 -5.652344 C 3.007812 -5.894531 3.28125 -6.101562 3.609375 -6.238281 C 3.917969 -6.375 4.3125 -6.460938 4.761719 -6.460938 C 5.207031 -6.460938 5.636719 -6.308594 6.082031 -6.015625 C 6.511719 -5.707031 6.839844 -5.328125 7.046875 -4.847656 Z M 8.351562 -4.847656 "/></g></g></g><g fill="#ffffff" fill-opacity="1"><g transform="translate(67.969523, 24.144056)"><g><path d="M 0.34375 -6.445312 L 2.234375 -6.445312 L 2.234375 0 L 3.4375 0 L 3.4375 -6.445312 L 5.308594 -6.445312 L 5.308594 -7.5625 L 3.4375 -7.5625 L 3.4375 -10.5 L 2.234375 -10.5 L 2.234375 -7.5625 L 0.34375 -7.5625 Z M 0.34375 -6.445312 "/></g></g></g></svg>