<svg xmlns="http://www.w3.org/2000/svg" xmlns:xlink="http://www.w3.org/1999/xlink" width="100" zoomAndPan="magnify" viewBox="0 0 75 37.5" height="50" preserveAspectRatio="xMidYMid meet" version="1.0"><defs><clipPath id="a4a181e3b1"><path d="M 62 15 L 74.503906 15 L 74.503906 29.335938 L 62 29.335938 Z M 62 15 " clip-rule="nonzero"/></clipPath><clipPath id="06e8087fe1"><path d="M 0.492188 8 L 59 8 L 59 29.335938 L 0.492188 29.335938 Z M 0.492188 8 " clip-rule="nonzero"/></clipPath><clipPath id="e4b3347f7a"><path d="M 16 15 L 55 15 L 55 29.335938 L 16 29.335938 Z M 16 15 " clip-rule="nonzero"/></clipPath></defs><g clip-path="url(#a4a181e3b1)"><path fill="#ffffff" d="M 68.585938 15.507812 C 68.402344 15.507812 68.230469 15.542969 68.074219 15.632812 L 63.167969 18.492188 C 62.847656 18.679688 62.65625 19.027344 62.65625 19.398438 L 62.65625 25.113281 C 62.65625 25.484375 62.847656 25.832031 63.167969 26.015625 L 64.449219 26.761719 C 65.070312 27.070312 65.300781 27.066406 65.582031 27.066406 C 66.503906 27.066406 67.03125 26.503906 67.03125 25.519531 L 67.03125 19.882812 C 67.03125 19.804688 66.964844 19.746094 66.886719 19.746094 L 66.269531 19.746094 C 66.191406 19.746094 66.125 19.804688 66.125 19.882812 L 66.125 25.523438 C 66.125 25.957031 65.675781 26.394531 64.949219 26.027344 L 63.617188 25.238281 C 63.570312 25.214844 63.53125 25.164062 63.53125 25.113281 L 63.53125 19.398438 C 63.53125 19.347656 63.570312 19.289062 63.617188 19.261719 L 68.511719 16.410156 C 68.558594 16.386719 68.613281 16.386719 68.660156 16.410156 L 73.554688 19.261719 C 73.601562 19.292969 73.640625 19.34375 73.640625 19.398438 L 73.640625 25.113281 C 73.640625 25.167969 73.613281 25.222656 73.566406 25.25 L 68.660156 28.101562 C 68.613281 28.125 68.558594 28.125 68.511719 28.101562 L 67.253906 27.34375 C 67.214844 27.320312 67.164062 27.324219 67.128906 27.34375 C 66.777344 27.542969 66.714844 27.566406 66.386719 27.679688 C 66.308594 27.707031 66.183594 27.753906 66.429688 27.890625 L 68.074219 28.871094 C 68.230469 28.960938 68.40625 29.007812 68.585938 29.007812 C 68.769531 29.007812 68.941406 28.964844 69.097656 28.871094 L 74.003906 26.019531 C 74.320312 25.832031 74.515625 25.484375 74.515625 25.113281 L 74.515625 19.402344 C 74.515625 19.03125 74.320312 18.683594 74.003906 18.496094 L 69.097656 15.636719 C 68.941406 15.546875 68.765625 15.507812 68.585938 15.507812 Z M 69.898438 19.589844 C 68.5 19.589844 67.667969 20.1875 67.667969 21.1875 C 67.667969 22.269531 68.492188 22.570312 69.835938 22.703125 C 71.4375 22.859375 71.5625 23.097656 71.5625 23.417969 C 71.5625 23.972656 71.128906 24.207031 70.09375 24.207031 C 68.796875 24.207031 68.511719 23.878906 68.417969 23.226562 C 68.40625 23.15625 68.351562 23.101562 68.28125 23.101562 L 67.644531 23.101562 C 67.550781 23.101562 67.5 23.152344 67.5 23.25 C 67.5 24.082031 67.949219 25.066406 70.09375 25.066406 C 71.644531 25.066406 72.542969 24.453125 72.542969 23.375 C 72.542969 22.308594 71.820312 22.019531 70.3125 21.816406 C 68.792969 21.613281 68.644531 21.515625 68.644531 21.152344 C 68.644531 20.855469 68.769531 20.460938 69.894531 20.460938 C 70.902344 20.460938 71.273438 20.679688 71.425781 21.363281 C 71.441406 21.429688 71.496094 21.480469 71.5625 21.480469 L 72.199219 21.480469 C 72.238281 21.480469 72.277344 21.457031 72.304688 21.429688 C 72.332031 21.398438 72.347656 21.363281 72.34375 21.324219 C 72.246094 20.144531 71.46875 19.585938 69.898438 19.585938 Z M 69.898438 19.589844 " fill-opacity="1" fill-rule="nonzero"/></g><g clip-path="url(#06e8087fe1)"><path fill="#ffffff" d="M 39.734375 8.015625 C 39.679688 8.015625 39.625 8.03125 39.578125 8.058594 C 39.476562 8.121094 39.421875 8.210938 39.421875 8.332031 L 39.421875 16.382812 C 39.421875 16.460938 39.386719 16.53125 39.316406 16.570312 C 39.246094 16.613281 39.171875 16.613281 39.097656 16.570312 L 37.796875 15.8125 C 37.589844 15.691406 37.378906 15.691406 37.171875 15.8125 L 31.972656 18.84375 C 31.777344 18.957031 31.660156 19.175781 31.660156 19.402344 L 31.660156 25.460938 C 31.660156 25.703125 31.765625 25.886719 31.972656 26.007812 L 37.171875 29.039062 C 37.378906 29.160156 37.589844 29.160156 37.796875 29.039062 L 42.996094 26.007812 C 43.203125 25.886719 43.308594 25.703125 43.308594 25.460938 L 43.308594 10.351562 C 43.308594 10.121094 43.183594 9.90625 42.984375 9.796875 L 39.890625 8.046875 C 39.84375 8.019531 39.789062 8.015625 39.734375 8.015625 Z M 6.289062 15.582031 C 6.191406 15.585938 6.097656 15.601562 6.007812 15.65625 L 0.8125 18.683594 C 0.601562 18.804688 0.496094 18.988281 0.5 19.230469 L 0.507812 27.363281 C 0.507812 27.476562 0.566406 27.582031 0.664062 27.636719 C 0.761719 27.695312 0.882812 27.695312 0.976562 27.636719 L 4.0625 25.851562 C 4.257812 25.734375 4.382812 25.527344 4.382812 25.304688 L 4.382812 21.503906 C 4.382812 21.277344 4.503906 21.070312 4.699219 20.957031 L 6.011719 20.191406 C 6.105469 20.132812 6.210938 20.105469 6.324219 20.105469 C 6.433594 20.105469 6.539062 20.132812 6.636719 20.191406 L 7.949219 20.957031 C 8.140625 21.070312 8.261719 21.277344 8.261719 21.503906 L 8.261719 25.300781 C 8.261719 25.527344 8.390625 25.734375 8.582031 25.847656 L 11.667969 27.636719 C 11.765625 27.695312 11.882812 27.695312 11.980469 27.636719 C 12.074219 27.582031 12.136719 27.476562 12.136719 27.363281 L 12.144531 19.230469 C 12.148438 18.988281 12.042969 18.804688 11.832031 18.683594 L 6.632812 15.65625 C 6.546875 15.605469 6.453125 15.585938 6.351562 15.582031 Z M 53.007812 15.65625 C 52.894531 15.65625 52.792969 15.683594 52.695312 15.738281 L 47.496094 18.769531 C 47.300781 18.882812 47.183594 19.089844 47.183594 19.316406 L 47.183594 25.375 C 47.183594 25.605469 47.308594 25.808594 47.507812 25.921875 L 52.664062 28.890625 C 52.855469 29 53.085938 29.007812 53.277344 28.902344 L 56.402344 27.144531 C 56.503906 27.089844 56.570312 26.984375 56.570312 26.871094 C 56.570312 26.757812 56.511719 26.65625 56.414062 26.597656 L 51.183594 23.566406 C 51.085938 23.511719 51.015625 23.398438 51.015625 23.285156 L 51.015625 21.386719 C 51.015625 21.273438 51.085938 21.171875 51.183594 21.113281 L 52.808594 20.167969 C 52.90625 20.113281 53.023438 20.113281 53.121094 20.167969 L 54.75 21.113281 C 54.855469 21.175781 54.90625 21.265625 54.90625 21.386719 L 54.90625 22.882812 C 54.90625 23.003906 54.957031 23.09375 55.0625 23.15625 C 55.160156 23.210938 55.277344 23.214844 55.375 23.15625 L 58.492188 21.324219 C 58.683594 21.210938 58.804688 21.003906 58.804688 20.777344 L 58.804688 19.316406 C 58.804688 19.074219 58.699219 18.890625 58.492188 18.769531 L 53.324219 15.738281 C 53.226562 15.683594 53.121094 15.65625 53.011719 15.65625 Z M 37.460938 20.179688 C 37.492188 20.179688 37.519531 20.1875 37.546875 20.199219 L 39.328125 21.242188 C 39.375 21.269531 39.410156 21.320312 39.410156 21.378906 L 39.410156 23.460938 C 39.410156 23.519531 39.375 23.570312 39.328125 23.597656 L 37.546875 24.640625 C 37.496094 24.667969 37.4375 24.667969 37.390625 24.640625 L 35.609375 23.597656 C 35.558594 23.570312 35.523438 23.519531 35.523438 23.460938 L 35.523438 21.378906 C 35.523438 21.324219 35.558594 21.269531 35.609375 21.242188 L 37.390625 20.199219 C 37.414062 20.1875 37.4375 20.179688 37.460938 20.179688 Z M 37.460938 20.179688 " fill-opacity="1" fill-rule="nonzero"/></g><g clip-path="url(#e4b3347f7a)"><path fill="#ffffff" d="M 21.90625 15.625 C 21.796875 15.625 21.691406 15.652344 21.59375 15.707031 L 16.394531 18.726562 C 16.203125 18.839844 16.082031 19.058594 16.082031 19.285156 L 16.082031 25.34375 C 16.082031 25.589844 16.1875 25.769531 16.394531 25.890625 L 21.59375 28.921875 C 21.804688 29.042969 22.011719 29.042969 22.21875 28.921875 L 27.417969 25.890625 C 27.628906 25.769531 27.730469 25.585938 27.730469 25.34375 L 27.730469 19.285156 C 27.730469 19.058594 27.613281 18.839844 27.417969 18.726562 L 22.21875 15.707031 C 22.125 15.652344 22.019531 15.625 21.90625 15.625 Z M 52.996094 21.03125 C 52.976562 21.03125 52.953125 21.03125 52.933594 21.042969 L 51.933594 21.628906 C 51.894531 21.652344 51.871094 21.6875 51.871094 21.734375 L 51.871094 22.894531 C 51.871094 22.9375 51.898438 22.976562 51.933594 23 L 52.933594 23.578125 C 52.972656 23.601562 53.011719 23.601562 53.050781 23.578125 L 54.050781 23 C 54.085938 22.976562 54.113281 22.9375 54.113281 22.894531 L 54.113281 21.734375 C 54.113281 21.691406 54.085938 21.652344 54.050781 21.628906 L 53.050781 21.042969 C 53.03125 21.03125 53.019531 21.03125 52.996094 21.03125 Z M 52.996094 21.03125 " fill-opacity="1" fill-rule="nonzero"/></g></svg>