<svg xmlns="http://www.w3.org/2000/svg" xmlns:xlink="http://www.w3.org/1999/xlink" width="100" zoomAndPan="magnify" viewBox="0 0 75 37.5" height="50" preserveAspectRatio="xMidYMid meet" version="1.0"><defs><clipPath id="34ae28b985"><path d="M 0.492188 10 L 74.503906 10 L 74.503906 27.519531 L 0.492188 27.519531 Z M 0.492188 10 " clip-rule="nonzero"/></clipPath></defs><g clip-path="url(#34ae28b985)"><path fill="#ffffff" d="M 23.621094 27.558594 L 23.621094 11.3125 L 24.488281 11.3125 L 24.488281 13.867188 C 24.59375 13.753906 24.6875 13.632812 24.773438 13.507812 C 25.496094 11.980469 27.023438 11.015625 28.695312 11.035156 C 30.671875 10.976562 32.277344 11.71875 33.222656 13.507812 C 33.832031 14.632812 34.152344 15.839844 34.1875 17.125 C 34.21875 18.410156 33.960938 19.632812 33.410156 20.789062 C 32.53125 22.792969 30.359375 23.789062 28.03125 23.421875 C 27.296875 23.359375 26.621094 23.121094 26.003906 22.707031 C 25.386719 22.296875 24.90625 21.757812 24.558594 21.097656 L 24.558594 27.554688 Z M 24.488281 17.058594 L 24.683594 18.964844 C 25.027344 21.136719 26.289062 22.421875 28.273438 22.660156 C 28.738281 22.738281 29.207031 22.734375 29.667969 22.648438 C 30.132812 22.5625 30.570312 22.398438 30.980469 22.160156 C 31.386719 21.917969 31.746094 21.617188 32.050781 21.25 C 32.355469 20.882812 32.589844 20.476562 32.757812 20.027344 C 33.527344 18.160156 33.46875 16.046875 32.601562 14.222656 C 32.425781 13.820312 32.191406 13.453125 31.898438 13.128906 C 31.605469 12.804688 31.265625 12.535156 30.886719 12.324219 C 30.507812 12.109375 30.105469 11.964844 29.675781 11.882812 C 29.25 11.804688 28.824219 11.796875 28.394531 11.859375 C 27.988281 11.886719 27.601562 11.980469 27.226562 12.132812 C 26.851562 12.285156 26.507812 12.492188 26.195312 12.753906 C 25.882812 13.015625 25.617188 13.320312 25.398438 13.664062 C 25.179688 14.011719 25.019531 14.382812 24.914062 14.777344 C 24.730469 15.53125 24.589844 16.289062 24.488281 17.058594 Z M 51.894531 19.265625 C 51.832031 19.839844 51.667969 20.378906 51.410156 20.890625 C 51.148438 21.402344 50.808594 21.851562 50.386719 22.238281 C 49.96875 22.625 49.492188 22.925781 48.96875 23.136719 C 48.441406 23.347656 47.894531 23.457031 47.324219 23.464844 C 43.6875 23.652344 41.980469 21.199219 41.710938 18.367188 C 41.519531 16.796875 41.753906 15.296875 42.417969 13.867188 C 42.644531 13.386719 42.941406 12.953125 43.300781 12.570312 C 43.664062 12.183594 44.078125 11.863281 44.539062 11.613281 C 45.003906 11.359375 45.492188 11.1875 46.007812 11.09375 C 46.523438 11 47.042969 10.992188 47.5625 11.066406 C 48.054688 11.109375 48.53125 11.226562 48.988281 11.421875 C 49.445312 11.617188 49.863281 11.878906 50.238281 12.207031 C 50.613281 12.535156 50.933594 12.910156 51.191406 13.339844 C 51.449219 13.769531 51.636719 14.230469 51.753906 14.71875 C 51.9375 15.613281 52.074219 16.511719 52.160156 17.417969 L 42.609375 17.417969 C 42.433594 19.984375 43.789062 22.050781 45.714844 22.546875 C 48.113281 23.148438 50.160156 22.09375 50.90625 19.777344 C 51.070312 19.183594 51.371094 19.097656 51.902344 19.265625 Z M 42.601562 16.597656 L 51.144531 16.597656 C 51.09375 13.863281 49.417969 11.875 47.144531 11.851562 C 44.574219 11.808594 42.714844 13.71875 42.601562 16.597656 Z M 53.664062 19.328125 L 54.5 19.328125 C 54.53125 19.964844 54.722656 20.550781 55.078125 21.078125 C 55.433594 21.605469 55.898438 22.003906 56.472656 22.265625 C 57.1875 22.59375 57.9375 22.746094 58.722656 22.726562 C 59.507812 22.703125 60.25 22.511719 60.949219 22.144531 C 61.332031 21.96875 61.632812 21.699219 61.851562 21.328125 C 62.066406 20.960938 62.160156 20.5625 62.128906 20.136719 C 62.152344 19.722656 62.046875 19.34375 61.820312 19 C 61.59375 18.65625 61.285156 18.417969 60.902344 18.28125 C 59.980469 17.933594 59 17.742188 58.0625 17.4375 C 57.082031 17.152344 56.128906 16.800781 55.203125 16.375 C 53.691406 15.625 53.597656 12.703125 55.308594 11.78125 C 56.199219 11.269531 57.15625 11.003906 58.179688 10.988281 C 59.203125 10.972656 60.167969 11.207031 61.070312 11.6875 C 62.179688 12.308594 62.789062 13.5625 62.609375 14.832031 L 61.890625 14.832031 C 61.890625 14.796875 61.824219 14.765625 61.824219 14.730469 C 61.734375 12.40625 59.8125 11.675781 57.746094 11.882812 C 57.121094 11.953125 56.527344 12.144531 55.972656 12.425781 C 55.632812 12.585938 55.367188 12.832031 55.175781 13.160156 C 54.988281 13.492188 54.910156 13.847656 54.945312 14.226562 C 54.945312 14.605469 55.054688 14.953125 55.273438 15.261719 C 55.488281 15.574219 55.773438 15.792969 56.128906 15.917969 C 57.027344 16.253906 57.988281 16.46875 58.917969 16.734375 L 61.175781 17.332031 C 61.699219 17.507812 62.128906 17.820312 62.464844 18.265625 C 62.796875 18.710938 62.980469 19.214844 63.003906 19.773438 C 63.1875 21.003906 62.566406 22.214844 61.476562 22.773438 C 59.503906 23.90625 56.257812 23.609375 54.808594 22.175781 C 54.070312 21.417969 53.65625 20.390625 53.664062 19.324219 Z M 73.632812 14.832031 L 72.847656 14.832031 C 72.847656 14.726562 72.804688 14.621094 72.792969 14.539062 C 72.785156 14.242188 72.730469 13.953125 72.628906 13.671875 C 72.523438 13.390625 72.375 13.136719 72.183594 12.910156 C 71.996094 12.679688 71.773438 12.492188 71.519531 12.339844 C 71.265625 12.191406 70.992188 12.085938 70.703125 12.03125 C 69.582031 11.707031 68.476562 11.757812 67.390625 12.195312 C 66.960938 12.320312 66.613281 12.5625 66.339844 12.921875 C 66.070312 13.285156 65.933594 13.691406 65.929688 14.144531 C 65.925781 14.359375 65.953125 14.574219 66.015625 14.777344 C 66.082031 14.984375 66.179688 15.175781 66.308594 15.347656 C 66.4375 15.519531 66.589844 15.667969 66.769531 15.785156 C 66.949219 15.902344 67.140625 15.988281 67.347656 16.039062 L 70.9375 16.976562 C 71.328125 17.070312 71.707031 17.1875 72.082031 17.328125 C 73.226562 17.753906 74.003906 18.832031 74.039062 20.066406 C 74.058594 20.683594 73.902344 21.253906 73.570312 21.773438 C 73.242188 22.292969 72.796875 22.675781 72.234375 22.914062 C 71.394531 23.304688 70.507812 23.503906 69.585938 23.511719 C 68.660156 23.519531 67.773438 23.339844 66.921875 22.96875 C 66.574219 22.816406 66.261719 22.617188 65.976562 22.367188 C 65.691406 22.117188 65.449219 21.832031 65.25 21.503906 C 65.050781 21.179688 64.90625 20.832031 64.8125 20.460938 C 64.71875 20.089844 64.679688 19.714844 64.703125 19.332031 L 65.46875 19.332031 C 65.757812 20.746094 66.710938 21.925781 68.023438 22.480469 C 69.335938 23.039062 70.832031 22.902344 72.023438 22.117188 C 72.386719 21.925781 72.671875 21.648438 72.878906 21.285156 C 73.082031 20.921875 73.175781 20.53125 73.15625 20.113281 C 73.175781 19.699219 73.070312 19.320312 72.835938 18.980469 C 72.605469 18.640625 72.296875 18.402344 71.910156 18.273438 C 70.988281 17.921875 70.007812 17.738281 69.070312 17.425781 C 68.085938 17.148438 67.128906 16.796875 66.195312 16.375 C 64.71875 15.636719 64.601562 12.742188 66.285156 11.816406 C 67.1875 11.285156 68.160156 11.011719 69.203125 11 C 70.25 10.988281 71.226562 11.238281 72.140625 11.75 C 72.667969 12.070312 73.0625 12.507812 73.332031 13.066406 C 73.601562 13.625 73.699219 14.210938 73.625 14.828125 Z M 22.195312 23.171875 C 21.875 23.296875 21.554688 23.296875 21.234375 23.171875 C 20.917969 23.046875 20.675781 22.832031 20.519531 22.523438 L 17.464844 18.234375 L 17.023438 17.636719 L 13.480469 22.53125 C 13.332031 22.824219 13.105469 23.03125 12.800781 23.152344 C 12.496094 23.273438 12.191406 23.28125 11.886719 23.167969 L 16.449219 16.945312 L 12.203125 11.324219 C 12.832031 11.09375 13.535156 11.34375 13.886719 11.925781 L 17.050781 16.265625 L 20.230469 11.941406 C 20.382812 11.652344 20.609375 11.449219 20.910156 11.335938 C 21.214844 11.222656 21.515625 11.222656 21.816406 11.339844 L 20.167969 13.5625 L 17.9375 16.515625 C 17.804688 16.632812 17.738281 16.78125 17.738281 16.960938 C 17.738281 17.140625 17.804688 17.289062 17.9375 17.40625 L 22.1875 23.171875 Z M 41.574219 11.265625 L 41.574219 12.109375 C 41.277344 12.089844 40.980469 12.101562 40.683594 12.148438 C 40.386719 12.191406 40.097656 12.265625 39.816406 12.371094 C 39.535156 12.472656 39.269531 12.609375 39.015625 12.769531 C 38.761719 12.929688 38.527344 13.117188 38.3125 13.328125 C 38.097656 13.542969 37.910156 13.773438 37.742188 14.027344 C 37.574219 14.277344 37.433594 14.546875 37.324219 14.828125 C 37.210938 15.109375 37.128906 15.398438 37.078125 15.699219 C 37.027344 16 37.003906 16.300781 37.015625 16.605469 C 37.015625 18.578125 37.015625 20.554688 37.015625 22.53125 L 37.015625 23.203125 L 36.171875 23.203125 L 36.171875 11.316406 L 37.003906 11.316406 L 37.003906 13.753906 C 38.027344 11.976562 39.601562 11.316406 41.582031 11.269531 Z M 0.957031 16.867188 L 1.328125 15.003906 C 2.351562 11.3125 6.515625 9.777344 9.378906 12.0625 C 11.054688 13.402344 11.472656 15.296875 11.390625 17.433594 L 1.945312 17.433594 C 1.792969 21.246094 4.5 23.550781 7.964844 22.375 C 9.109375 21.953125 9.96875 20.988281 10.25 19.789062 C 10.433594 19.191406 10.738281 19.085938 11.292969 19.261719 C 11.199219 20 10.949219 20.683594 10.546875 21.308594 C 10.144531 21.929688 9.628906 22.433594 9 22.820312 C 8.484375 23.105469 7.941406 23.300781 7.367188 23.414062 C 6.792969 23.523438 6.214844 23.539062 5.632812 23.464844 C 5.050781 23.390625 4.496094 23.222656 3.96875 22.972656 C 3.4375 22.71875 2.960938 22.386719 2.535156 21.980469 C 1.691406 21.015625 1.179688 19.796875 1.082031 18.511719 C 1.082031 18.300781 1.011719 18.101562 0.964844 17.910156 C 0.957031 17.554688 0.957031 17.207031 0.957031 16.867188 Z M 1.957031 16.609375 L 10.5 16.609375 C 10.445312 13.84375 8.730469 11.882812 6.4375 11.867188 C 3.886719 11.828125 2.0625 13.75 1.949219 16.597656 Z M 1.957031 16.609375 " fill-opacity="1" fill-rule="nonzero"/></g></svg>