<svg xmlns="http://www.w3.org/2000/svg" xmlns:xlink="http://www.w3.org/1999/xlink" width="100" zoomAndPan="magnify" viewBox="0 0 75 37.5" height="50" preserveAspectRatio="xMidYMid meet" version="1.0"><defs><clipPath id="782aa55c6b"><path d="M 21.53125 4.628906 L 26 4.628906 L 26 22 L 21.53125 22 Z M 21.53125 4.628906 " clip-rule="nonzero"/></clipPath><clipPath id="6402b998db"><path d="M 49 14 L 53.355469 14 L 53.355469 27 L 49 27 Z M 49 14 " clip-rule="nonzero"/></clipPath><clipPath id="e22d97c1d6"><path d="M 49 5 L 53.355469 5 L 53.355469 13 L 49 13 Z M 49 5 " clip-rule="nonzero"/></clipPath><clipPath id="5f7c50877e"><path d="M 40 4.628906 L 46 4.628906 L 46 22 L 40 22 Z M 40 4.628906 " clip-rule="nonzero"/></clipPath><clipPath id="9890df0ab9"><path d="M 21.53125 4.628906 L 34 4.628906 L 34 17 L 21.53125 17 Z M 21.53125 4.628906 " clip-rule="nonzero"/></clipPath><clipPath id="f3b6e5f97b"><path d="M 33 4.628906 L 46 4.628906 L 46 17 L 33 17 Z M 33 4.628906 " clip-rule="nonzero"/></clipPath><clipPath id="e8e18854b1"><path d="M 41 19 L 53.355469 19 L 53.355469 32.015625 L 41 32.015625 Z M 41 19 " clip-rule="nonzero"/></clipPath></defs><g clip-path="url(#782aa55c6b)"><path fill="#ffffff" d="M 21.542969 4.628906 L 25.691406 7.371094 L 25.691406 21.0625 L 21.542969 18.324219 Z M 21.542969 4.628906 " fill-opacity="1" fill-rule="nonzero"/></g><g clip-path="url(#6402b998db)"><path fill="#cbcbcb" d="M 53.34375 14.898438 L 49.195312 17.636719 L 49.195312 26.539062 L 53.34375 23.800781 Z M 53.34375 14.898438 " fill-opacity="1" fill-rule="nonzero"/></g><g clip-path="url(#e22d97c1d6)"><path fill="#cbcbcb" d="M 53.34375 5.316406 L 49.195312 8.054688 L 49.195312 12.847656 L 53.34375 10.109375 Z M 53.34375 5.316406 " fill-opacity="1" fill-rule="nonzero"/></g><g clip-path="url(#5f7c50877e)"><path fill="#cbcbcb" d="M 45.050781 4.628906 L 40.902344 7.371094 L 40.902344 21.0625 L 45.050781 18.324219 Z M 45.050781 4.628906 " fill-opacity="1" fill-rule="nonzero"/></g><g clip-path="url(#9890df0ab9)"><path fill="#ffffff" d="M 21.542969 9.421875 L 33.296875 16.953125 L 33.296875 12.160156 L 21.542969 4.628906 Z M 21.542969 9.421875 " fill-opacity="1" fill-rule="nonzero"/></g><g clip-path="url(#f3b6e5f97b)"><path fill="#cbcbcb" d="M 45.050781 9.421875 L 33.296875 16.953125 L 33.296875 12.160156 L 45.050781 4.628906 Z M 45.050781 9.421875 " fill-opacity="1" fill-rule="nonzero"/></g><path fill="#cbcbcb" d="M 45.050781 19.007812 L 33.296875 26.539062 L 33.296875 21.746094 L 45.050781 14.214844 Z M 45.050781 19.007812 " fill-opacity="1" fill-rule="nonzero"/><g clip-path="url(#e8e18854b1)"><path fill="#cbcbcb" d="M 53.34375 24.484375 L 41.59375 32.015625 L 41.59375 27.222656 L 53.34375 19.691406 Z M 53.34375 24.484375 " fill-opacity="1" fill-rule="nonzero"/></g><path fill="#ffffff" d="M 41.59375 27.0625 L 33.296875 21.746094 L 33.296875 26.539062 L 41.59375 31.855469 Z M 41.59375 27.0625 " fill-opacity="1" fill-rule="nonzero"/></svg>